<svg xmlns="http://www.w3.org/2000/svg" width="24" height="24" viewBox="0 0 24 24" fill="none">
<path d="M19.7614 12.9273C18.9579 12.8732 18.1503 12.8179 17.3454 12.8166C15.8202 12.8126 14.2924 12.839 12.7672 12.8706C11.9412 12.8891 11.1165 12.9312 10.2931 12.9932C9.29521 13.0696 8.3 13.1685 7.30479 13.2753C4.89541 13.5323 2.51907 13.9673 0.175766 14.5829C0.167836 14.5855 0.159907 14.5882 0.151978 14.5908C0.190306 14.7754 0.235241 14.9599 0.2815 15.1431C0.905322 15.1708 1.52782 15.1998 2.15297 15.2235C2.72657 15.246 3.29885 15.2618 3.87245 15.2868C4.69716 15.3224 5.52056 15.3646 6.34527 15.3975C6.93737 15.4213 7.5308 15.4345 8.1229 15.4582C9.04542 15.4951 9.96794 15.5346 10.8891 15.5715C11.4231 15.594 11.957 15.6111 12.491 15.6335C13.4135 15.6704 14.3347 15.71 15.2559 15.7455C15.8295 15.768 16.4018 15.7851 16.9754 15.8062C17.9759 15.8431 18.975 15.8826 19.9755 15.9195C20.3245 15.9327 20.6734 15.9433 21.0249 15.9525C21.7836 15.9723 22.5409 15.992 23.2982 16.0039C23.3312 16.0052 23.3603 16.0052 23.3841 16.0039C23.6828 15.1392 23.8824 14.2296 23.9736 13.2871C23.6749 13.2516 23.3762 13.2133 23.0748 13.187C21.9699 13.0973 20.8663 13.0024 19.7614 12.9273Z" fill="#2764FF"/>
<path d="M23.5387 8.72635C23.5004 8.71976 23.4542 8.71844 23.3986 8.71448C22.0426 8.62485 20.6866 8.5273 19.3293 8.45744C18.1649 8.39944 16.9979 8.35989 15.8321 8.34407C14.7933 8.32958 13.7519 8.35594 12.7117 8.36912C12.3707 8.37308 12.0311 8.38098 11.6927 8.40076C10.7226 8.45348 9.75252 8.49566 8.78374 8.57344C7.46737 8.68153 6.15232 8.80017 4.83991 8.94912C3.8262 9.06512 2.8191 9.22989 1.81199 9.38807C1.25161 9.47638 0.696514 9.58975 0.140095 9.70179C0.0845858 9.97729 0.0370064 10.2581 0 10.5415C1.55031 10.5902 23.4158 11.2559 24 11.2691C23.9379 10.3912 23.7819 9.53966 23.5387 8.72635Z" fill="#2764FF"/>
<path d="M20.9073 4.06546C20.6615 4.05096 20.4183 4.02197 20.1725 4.01406C18.9777 3.97978 17.7829 3.94024 16.5881 3.92837C15.6458 3.91783 14.7021 3.93628 13.7611 3.95474C12.906 3.97451 12.0509 3.98637 11.1984 4.04833C9.96001 4.13928 8.72294 4.26056 7.48586 4.38842C5.79282 4.56374 2.62877 5.22018 1.99569 5.35332C1.83974 5.57873 1.69303 5.80941 1.55426 6.04536C4.22665 6.14159 21.1346 6.71631 22.7629 6.7664C22.2713 5.78173 21.6435 4.8735 20.9073 4.06546Z" fill="#2764FF"/>
<path d="M20.9549 17.955C19.661 17.8285 18.3645 17.6545 17.0666 17.6163C15.1251 17.5609 13.177 17.5569 11.2368 17.6954C10.0354 17.781 8.83794 17.9049 7.64184 18.0354C5.81267 18.2345 4.01125 18.5812 2.22965 19.0346C2.19132 19.0438 2.15564 19.0544 2.11731 19.0649C2.23626 19.231 2.35785 19.3945 2.48605 19.554C2.7517 19.5593 3.01736 19.5711 3.28301 19.5803C3.81696 19.6001 4.35091 19.6186 4.88354 19.6423C5.68843 19.6779 6.49464 19.7201 7.29953 19.753C7.90089 19.7767 8.50224 19.7899 9.10492 19.8137C10.1821 19.8585 11.2579 19.9112 12.3351 19.9547C13.2087 19.9903 14.0836 20.0114 14.9572 20.0457C16.1018 20.0905 17.2463 20.1445 18.3922 20.1854C19.2064 20.2157 20.0205 20.2276 20.8333 20.2552C21.4215 19.6238 21.9395 18.9305 22.377 18.1844C22.3321 18.1712 22.2911 18.1594 22.2488 18.1528C21.8193 18.0829 21.3897 17.9972 20.9549 17.955Z" fill="#2764FF"/>
<path d="M18.6883 2.03658C18.4715 1.89026 18.2495 1.75185 18.0222 1.62135C16.2419 0.59054 14.1708 0 11.9624 0C9.75254 0 7.6815 0.59054 5.90255 1.62135C5.66465 1.75844 5.43204 1.90476 5.20471 2.05635H18.6909V2.03658H18.6883Z" fill="#2764FF"/>
<path d="M6.14443 22.5171C7.84144 23.4477 9.78824 23.9829 11.8593 24.0001H12.0668C14.1378 23.9829 16.0846 23.4477 17.7816 22.5171C18.0935 22.3471 18.3975 22.1625 18.6909 21.9648V21.9424H5.20209C5.50607 22.1493 5.82062 22.3405 6.14443 22.5171Z" fill="#2764FF"/>
</svg>